<?xml version="1.0" encoding="utf-8"?>
<!-- Generator: Adobe Illustrator 16.0.0, SVG Export Plug-In . SVG Version: 6.00 Build 0)  -->
<!DOCTYPE svg PUBLIC "-//W3C//DTD SVG 1.1//EN" "http://www.w3.org/Graphics/SVG/1.1/DTD/svg11.dtd">
<svg version="1.1" id="Layer_1" xmlns="http://www.w3.org/2000/svg" xmlns:xlink="http://www.w3.org/1999/xlink" x="0px" y="0px"
	 width="51.158px" height="50.325px" viewBox="0 0 51.158 50.325" enable-background="new 0 0 51.158 50.325" xml:space="preserve">
<path fill="#007BFF" d="M51.144,23.034c-0.091-1.354-0.729-2.614-1.766-3.489c-0.947-0.803-2.181-1.186-3.416-1.061
	c-1.717,0.198-3.201,1.286-3.906,2.863l-1.535,0.135l-1.514-0.424c-0.121-0.036-0.216-0.129-0.254-0.249
	c-0.439-1.309-1.068-2.547-1.865-3.675l0.536-1.441l1.691-1.829c0.964-0.031,1.872-0.467,2.5-1.2c1.157-1.356,1.11-3.367-0.11-4.667
	c-0.659-0.698-1.58-1.089-2.541-1.077c-0.959,0.008-1.873,0.411-2.525,1.114c-0.629,0.676-0.961,1.577-0.92,2.5l-1.69,1.833
	l-1.417,0.657c-2.117-1.236-4.518-1.904-6.969-1.939l-0.927-1.478l-0.327-1.624c1.3-1.038,1.905-2.72,1.563-4.349
	c-0.677-2.597-3.331-4.154-5.928-3.478c-1.133,0.295-2.122,0.99-2.784,1.956c-0.658,0.977-0.89,2.18-0.643,3.331
	c0.344,1.549,1.464,2.81,2.961,3.333l0.361,1.794l-0.287,1.749c-1.308,0.586-2.52,1.367-3.594,2.315l-1.062-0.189l-1.2-0.905
	c-0.356-1.884-2.172-3.122-4.056-2.766c-1.884,0.356-3.122,2.172-2.766,4.055c0.356,1.884,2.172,3.122,4.055,2.766
	c0.004,0,0.009-0.001,0.013-0.002l1.006,0.759l0.451,0.923c0.02,0.041,0.02,0.088,0,0.129c-0.855,1.86-1.296,3.883-1.291,5.93
	c0,0.383,0.016,0.772,0.047,1.157c0.006,0.057-0.018,0.111-0.063,0.145l-1.7,1.211l-1.938,0.609
	c-1.197-0.926-2.776-1.195-4.213-0.72l-0.086,0.031l-0.024,0.009c-0.399,0.145-0.606,0.584-0.462,0.982
	c0.144,0.4,0.584,0.606,0.983,0.463l0.036-0.014l0.036-0.013c1.056-0.35,2.22-0.089,3.025,0.679c0.203,0.193,0.494,0.26,0.76,0.176
	l2.461-0.773c0.077-0.023,0.149-0.061,0.215-0.107l1.8-1.28c0.484-0.349,0.75-0.927,0.7-1.521c-0.028-0.344-0.042-0.691-0.042-1.033
	c-0.004-1.828,0.391-3.634,1.156-5.294c0.212-0.459,0.206-0.99-0.017-1.445l-0.532-1.088c-0.053-0.108-0.13-0.203-0.227-0.276
	l-1.446-1.091c-0.2-0.151-0.461-0.195-0.7-0.118c-0.6,0.191-1.254,0.079-1.757-0.3c-0.853-0.644-1.022-1.857-0.378-2.71
	c0.025-0.033,0.051-0.065,0.078-0.097c0.642-0.733,1.726-0.881,2.541-0.347c0.49,0.33,0.802,0.865,0.847,1.454
	c0.018,0.217,0.127,0.417,0.3,0.549l1.6,1.208c0.097,0.073,0.209,0.122,0.328,0.143l1.613,0.288c0.237,0.042,0.48-0.029,0.657-0.193
	c1.116-1.038,2.41-1.867,3.819-2.447c0.247-0.101,0.423-0.323,0.466-0.586l0.378-2.3c0.017-0.091,0.017-0.185,0-0.276l-0.475-2.375
	c-0.058-0.289-0.276-0.519-0.561-0.592C19.064,7.175,18.167,6.278,17.9,5.13c-0.159-0.747-0.007-1.527,0.42-2.16
	c1.049-1.508,3.122-1.88,4.63-0.831c0.631,0.439,1.09,1.083,1.3,1.823c0.24,1.194-0.29,2.412-1.327,3.051
	c-0.266,0.171-0.399,0.489-0.336,0.8l0.451,2.243c0.018,0.09,0.051,0.177,0.1,0.256l1.109,1.77c0.212,0.341,0.586,0.548,0.988,0.546
	l0,0c2.309-0.004,4.575,0.623,6.553,1.813c0.33,0.2,0.736,0.223,1.087,0.061l1.735-0.806c0.092-0.042,0.174-0.101,0.242-0.175
	l2.027-2.193c0.161-0.171,0.234-0.407,0.2-0.639c-0.165-1.055,0.556-2.044,1.611-2.21c0.628-0.098,1.265,0.119,1.702,0.58
	c0.682,0.724,0.707,1.845,0.061,2.6c-0.4,0.465-0.998,0.711-1.61,0.662c-0.233-0.018-0.463,0.073-0.622,0.245l-2.033,2.192
	c-0.068,0.074-0.121,0.16-0.156,0.254l-0.659,1.772c-0.136,0.364-0.079,0.772,0.151,1.086c0.762,1.045,1.358,2.2,1.771,3.426
	c0.2,0.604,0.688,1.067,1.3,1.239l1.649,0.462c0.089,0.025,0.183,0.033,0.274,0.025l2.14-0.188c0.301-0.026,0.559-0.228,0.657-0.513
	c0.407-1.248,1.498-2.147,2.801-2.31c0.824-0.082,1.646,0.174,2.277,0.71c0.719,0.61,1.158,1.487,1.219,2.429
	c0.049,0.64-0.066,1.281-0.336,1.863c-0.178,0.384-0.012,0.841,0.373,1.021c0.385,0.179,0.842,0.012,1.021-0.373l0,0
	c0.38-0.821,0.544-1.727,0.474-2.629V23.034z"/>
<path fill="#007BFF" d="M47.276,26.834c-0.214,0.07-0.436,0.117-0.66,0.141c-1.35,0.121-2.625-0.635-3.166-1.876
	c-0.137-0.292-0.441-0.468-0.764-0.44l-2.01,0.178c-0.092,0.008-0.182,0.033-0.266,0.073l-1.518,0.732
	c-0.577,0.28-0.976,0.829-1.062,1.465c-0.134,0.954-0.375,1.889-0.722,2.787c-0.205,0.53-0.164,1.125,0.113,1.622l0.539,0.966
	c0.059,0.105,0.143,0.196,0.242,0.263l1.5,1.01c0.207,0.138,0.468,0.167,0.7,0.078c0.588-0.225,1.248-0.149,1.771,0.201
	c0.889,0.593,1.129,1.795,0.535,2.684c-0.023,0.033-0.047,0.066-0.072,0.1c-0.6,0.768-1.674,0.976-2.518,0.487
	c-0.508-0.3-0.852-0.815-0.932-1.4c-0.031-0.216-0.152-0.409-0.333-0.53l-1.666-1.119c-0.101-0.066-0.216-0.109-0.335-0.125
	l-1.049-0.127c-0.587-0.069-1.174,0.127-1.601,0.537c-0.837,0.799-1.779,1.48-2.8,2.025c-0.598,0.324-0.986,0.932-1.03,1.609
	l-0.133,2.125c-0.005,0.079,0.003,0.158,0.022,0.236l0.658,2.615c0.068,0.268,0.273,0.479,0.539,0.553
	c0.895,0.25,1.587,0.961,1.816,1.861c0.35,1.387-0.491,2.795-1.878,3.145c-0.024,0.006-0.049,0.012-0.073,0.018
	c-1.396,0.31-2.779-0.571-3.09-1.968c-0.193-0.874,0.078-1.785,0.717-2.411c0.195-0.191,0.273-0.472,0.207-0.736l-0.663-2.632
	c-0.019-0.077-0.05-0.15-0.092-0.218l-1.03-1.645c-0.416-0.67-1.151-1.073-1.939-1.066l0,0c-0.83,0.003-1.658-0.076-2.473-0.234
	c-0.763-0.155-1.552,0.094-2.087,0.659l-1.352,1.427c-0.055,0.059-0.1,0.123-0.134,0.195l-1.513,3.141
	c-0.104,0.211-0.104,0.46,0,0.672c0.473,0.958,0.08,2.117-0.877,2.591c-0.575,0.284-1.253,0.265-1.811-0.052
	c-0.839-0.484-1.196-1.512-0.839-2.412c0.235-0.584,0.741-1.016,1.355-1.156c0.227-0.053,0.417-0.205,0.518-0.414l1.523-3.16
	c0.035-0.071,0.058-0.147,0.069-0.227l0.3-2.121c0.093-0.657-0.165-1.316-0.679-1.736c-1.147-0.929-2.124-2.049-2.889-3.311
	c-0.343-0.557-0.947-0.899-1.6-0.908l-2.118-0.02c-0.081-0.001-0.161,0.011-0.238,0.035l-2.319,0.729
	c-0.291,0.092-0.5,0.346-0.533,0.647c-0.185,1.653-1.674,2.845-3.327,2.659c-1.174-0.131-2.164-0.936-2.53-2.059
	c-0.202-0.619-0.195-1.286,0.019-1.9c0.13-0.404-0.092-0.836-0.496-0.967c-0.392-0.125-0.814,0.08-0.956,0.467
	c-0.325,0.932-0.334,1.944-0.027,2.882c0.618,1.87,2.365,3.133,4.334,3.134c0.459,0,0.916-0.07,1.354-0.208
	c1.541-0.485,2.709-1.752,3.07-3.327l1.756-0.552l2,0.019c0.122,0.002,0.235,0.065,0.3,0.168c0.856,1.414,1.951,2.668,3.235,3.709
	c0.097,0.08,0.144,0.205,0.125,0.33l-0.282,2l-1.323,2.746c-1.808,0.637-2.756,2.617-2.12,4.426
	c0.279,0.792,0.836,1.456,1.568,1.869c0.835,0.475,1.831,0.58,2.747,0.289c0.913-0.289,1.667-0.939,2.086-1.801
	c0.407-0.838,0.457-1.805,0.139-2.681l1.311-2.72l1.27-1.34c0.174-0.182,0.429-0.26,0.674-0.209
	c0.915,0.182,1.846,0.271,2.778,0.271l0,0c0.254-0.004,0.491,0.125,0.627,0.34l0.959,1.543l0.533,2.116
	c-0.894,1.088-1.167,2.558-0.726,3.896c0.566,1.693,2.151,2.836,3.938,2.84c0.295-0.002,0.59-0.035,0.878-0.101
	c2.225-0.493,3.628-2.697,3.134-4.922c-0.008-0.038-0.018-0.076-0.027-0.114c-0.324-1.275-1.236-2.322-2.457-2.816l-0.527-2.1
	l0.126-2c0.008-0.148,0.091-0.28,0.22-0.352c1.145-0.611,2.2-1.374,3.139-2.27c0.096-0.093,0.227-0.139,0.359-0.123l0.866,0.104
	l1.249,0.838c0.46,1.86,2.342,2.996,4.203,2.536c1.86-0.461,2.996-2.342,2.535-4.203c-0.46-1.861-2.342-2.996-4.203-2.535
	c-0.004,0-0.008,0.002-0.012,0.002l-1.045-0.699l-0.451-0.807c-0.055-0.098-0.061-0.216-0.02-0.32
	c0.389-1.008,0.659-2.057,0.809-3.125c0.016-0.127,0.094-0.237,0.207-0.295l1.392-0.67l1.366-0.121
	c1.1,1.884,3.367,2.742,5.439,2.059c0.402-0.137,0.617-0.572,0.48-0.975c-0.135-0.396-0.562-0.611-0.961-0.484V26.834z"/>
<path fill="#007BFF" d="M25.52,21.764c0-2.302-1.866-4.167-4.167-4.167s-4.167,1.866-4.167,4.167s1.866,4.167,4.167,4.167l0,0
	C23.653,25.928,25.517,24.064,25.52,21.764z M21.353,24.019c-1.246,0-2.255-1.01-2.255-2.255c0-1.246,1.009-2.255,2.255-2.255
	s2.255,1.01,2.255,2.255C23.606,23.009,22.598,24.018,21.353,24.019z"/>
<path fill="#007BFF" d="M24.913,34.458c1.764,0,3.193-1.43,3.193-3.193s-1.43-3.194-3.193-3.194c-1.764,0-3.194,1.431-3.194,3.194
	C21.722,33.026,23.15,34.455,24.913,34.458z M24.913,30.015c0.69,0,1.25,0.56,1.25,1.25s-0.56,1.25-1.25,1.25s-1.25-0.56-1.25-1.25
	C23.664,30.575,24.223,30.016,24.913,30.015z"/>
<path fill="#007BFF" d="M29.938,22.913c0,1.238,1.004,2.242,2.242,2.242s2.241-1.003,2.241-2.242s-1.003-2.242-2.241-2.242
	C30.942,20.673,29.939,21.675,29.938,22.913z M32.181,22.207c0.389,0,0.705,0.316,0.705,0.706c0,0.39-0.316,0.706-0.705,0.706
	c-0.391,0-0.707-0.316-0.707-0.706l0,0C31.475,22.523,31.79,22.208,32.181,22.207z"/>
</svg>
