<?xml version="1.0" encoding="utf-8"?>
<!-- Generator: Adobe Illustrator 16.0.0, SVG Export Plug-In . SVG Version: 6.00 Build 0)  -->
<!DOCTYPE svg PUBLIC "-//W3C//DTD SVG 1.1//EN" "http://www.w3.org/Graphics/SVG/1.1/DTD/svg11.dtd">
<svg version="1.1" id="Layer_1" xmlns="http://www.w3.org/2000/svg" xmlns:xlink="http://www.w3.org/1999/xlink" x="0px" y="0px"
	 width="34.014px" height="28.2px" viewBox="0 0 34.014 28.2" enable-background="new 0 0 34.014 28.2" xml:space="preserve">
<g transform="translate(-17.692 -58.159)">
	<path fill="#FF073A" d="M44.202,75.652l-9.16,9.159l-9.16-9.159l-0.905,0.905l9.613,9.614c0.251,0.25,0.656,0.25,0.906,0
		l9.614-9.614L44.202,75.652z"/>
	<path fill="#FF073A" d="M43.36,58.159c-2.214-0.006-4.339,0.874-5.9,2.444l-2.418,2.418l-2.418-2.418
		c-3.313-3.205-8.596-3.117-11.8,0.195c-3.13,3.235-3.13,8.37,0,11.605l0.307,0.307l0.906-0.906l-0.307-0.307
		c-2.788-2.728-2.837-7.2-0.108-9.988c2.728-2.788,7.199-2.836,9.987-0.108c0.037,0.036,0.073,0.072,0.108,0.108l2.871,2.871
		c0.251,0.25,0.656,0.25,0.906,0l2.871-2.871c2.759-2.758,7.23-2.758,9.989,0c2.758,2.758,2.758,7.23,0,9.989l-0.308,0.307
		l0.906,0.906l0.307-0.307c3.259-3.259,3.258-8.543-0.001-11.802C47.694,59.038,45.573,58.159,43.36,58.159z"/>
	<rect x="17.692" y="73.713" fill="#FF073A" width="33.749" height="1.174"/>
</g>
</svg>
