<?xml version="1.0" encoding="utf-8"?>
<!-- Generator: Adobe Illustrator 16.0.0, SVG Export Plug-In . SVG Version: 6.00 Build 0)  -->
<!DOCTYPE svg PUBLIC "-//W3C//DTD SVG 1.1//EN" "http://www.w3.org/Graphics/SVG/1.1/DTD/svg11.dtd">
<svg version="1.1" id="Layer_1" xmlns="http://www.w3.org/2000/svg" xmlns:xlink="http://www.w3.org/1999/xlink" x="0px" y="0px"
	 width="34.01px" height="28.777px" viewBox="0 0 34.01 28.777" enable-background="new 0 0 34.01 28.777" xml:space="preserve">
<g transform="translate(-18.16 -58.159)">
	<path fill="#28A745" d="M44.766,76.468l-9.601,8.957l-9.605-8.956l-0.95,0.886l10.08,9.4c0.27,0.244,0.681,0.244,0.95,0l10.081-9.4
		L44.766,76.468z"/>
	<path fill="#28A745" d="M43.654,58.159c-2.241-0.014-4.4,0.843-6.022,2.39l-2.467,2.364l-2.467-2.364
		c-3.382-3.187-8.662-3.187-12.044,0c-3.187,2.996-3.34,8.008-0.344,11.194c0.111,0.118,0.226,0.232,0.344,0.344l0.313,0.3
		l0.925-0.886l-0.313-0.3c-2.697-2.534-2.829-6.774-0.295-9.471c0.095-0.102,0.194-0.2,0.295-0.296
		c2.863-2.696,7.331-2.696,10.194,0l2.93,2.808c0.26,0.245,0.666,0.245,0.925,0l2.93-2.808c2.863-2.696,7.332-2.696,10.194,0
		c2.697,2.534,2.829,6.774,0.296,9.471c-0.096,0.102-0.194,0.2-0.296,0.296l-0.313,0.3l0.926,0.886l0.314-0.3
		c2.424-2.28,3.162-5.834,1.846-8.891C50.136,60.102,47.046,58.123,43.654,58.159z"/>
	<path fill="#28A745" d="M40.36,68.243c-0.1-0.343-0.459-0.54-0.801-0.439c-0.203,0.059-0.365,0.214-0.433,0.415l-3.291,9.144
		L31.86,65.508c-0.104-0.341-0.464-0.533-0.805-0.43c-0.199,0.061-0.356,0.213-0.423,0.41l-3.109,8.422H18.16v1.363h9.811
		c0.275-0.004,0.519-0.179,0.61-0.438l2.631-7.127l3.99,11.878c0.085,0.267,0.33,0.449,0.609,0.456h0.008
		c0.277-0.004,0.521-0.181,0.611-0.442l3.276-9.1l1.378,4.307c0.084,0.274,0.335,0.463,0.621,0.467H52.17v-1.363h-9.993
		L40.36,68.243z"/>
</g>
</svg>
